<svg version="1.1" id="Layer_1" xmlns="http://www.w3.org/2000/svg" xmlns:xlink="http://www.w3.org/1999/xlink" x="0px" y="0px"
	 width="100%" viewBox="0 0 496 272" enable-background="new 0 0 496 272" xml:space="preserve">
<path fill="#000000" opacity="1.000000" stroke="none" 
	d="
M237.078659,74.449768 
	C233.030960,62.593262 238.330368,54.699341 249.678192,54.567097 
	C255.309952,54.501469 258.955200,57.216995 261.118713,61.871872 
	C263.354156,66.681381 263.550018,72.298233 259.593506,75.876228 
	C255.186310,79.861794 255.071152,84.185257 255.240753,89.270348 
	C255.652542,101.615868 255.539307,101.628021 268.044220,101.877518 
	C270.683472,101.930176 273.168274,101.937164 275.727509,100.493713 
	C279.177826,98.547630 283.287170,99.295181 286.080109,101.588425 
	C288.658142,103.705200 287.498993,107.572319 287.037231,110.599823 
	C286.620087,113.335052 278.952515,115.082451 276.130920,113.198433 
	C269.843140,108.999985 263.290588,112.154335 256.868011,112.470673 
	C255.296539,112.548073 255.513855,114.449928 255.564102,115.804665 
	C256.168762,132.106125 256.776489,148.407532 257.333374,164.710663 
	C257.674866,174.709900 264.041718,179.757339 273.207031,176.115875 
	C283.093018,172.188065 293.377625,168.434296 299.987305,159.134949 
	C301.027588,157.671356 302.670959,156.595413 302.896149,154.537460 
	C301.178772,152.088928 297.342987,153.444107 295.463226,150.208069 
	C304.065704,144.946426 313.294464,140.477234 319.017395,131.618881 
	C324.344208,137.816360 321.715576,158.922531 315.225525,165.087830 
	C313.407043,164.792145 313.836945,162.486618 312.124420,161.794052 
	C309.799469,161.942108 308.916687,164.170486 307.583862,165.722092 
	C296.547455,178.570236 283.663391,188.757111 267.278687,193.954910 
	C259.092804,196.551743 253.602356,202.414383 248.858902,209.773010 
	C246.680542,206.891373 244.993225,204.266678 242.914658,202.000900 
	C239.736954,198.537018 236.012558,195.609222 231.465393,194.219299 
	C213.896301,188.848953 200.355423,178.014954 189.357361,163.635651 
	C188.666290,162.732101 187.881424,161.900284 187.143250,161.038651 
	C184.728760,161.568512 185.411057,164.852417 182.173340,165.262619 
	C177.561249,154.823608 175.475983,144.038116 178.585648,131.210739 
	C185.885773,139.562332 194.037766,145.538345 203.289597,150.281464 
	C201.174622,153.442169 197.523575,152.645996 195.877213,154.821533 
	C195.552200,156.213745 196.353867,156.918350 197.022156,157.625580 
	C205.289108,166.374451 215.024155,172.914978 226.437149,176.809326 
	C233.007431,179.051239 238.538391,175.674759 239.569550,168.769791 
	C240.206665,164.503479 240.818054,160.226181 240.708878,155.858307 
	C240.392502,143.200485 240.961594,130.555008 241.722260,117.924469 
	C241.954041,114.075577 241.021439,112.038849 236.656616,112.048988 
	C231.364349,112.061287 226.180695,109.772324 220.948288,113.756584 
	C218.483841,115.633156 213.969116,114.426971 211.783707,111.946632 
	C209.544922,109.405685 210.199509,105.584846 211.393860,102.444344 
	C212.163116,100.421593 219.801651,98.686638 221.426483,100.369453 
	C224.871750,103.937668 228.828781,102.659035 232.649307,102.225800 
	C241.339478,101.240341 241.108109,101.102570 242.219818,92.280960 
	C243.058655,85.624786 243.258636,79.410805 237.078659,74.449768 
M244.962234,63.477470 
	C242.364777,67.497368 242.741318,70.681984 246.129608,72.649330 
	C249.595978,74.661995 252.155518,73.212204 253.997528,70.198494 
	C255.097656,68.398567 255.030701,66.374817 253.597504,64.673042 
	C251.385849,62.046867 248.652115,61.696648 244.962234,63.477470 
z"/>
</svg>